ply
format ascii 1.0
comment VCGLIB generated
element vertex 26
property float x
property float y
property float z
property float nx
property float ny
property float nz
property float texture_u
property float texture_v
element face 12
property list uchar int vertex_indices
end_header
2000 -1 -2000 0 0 -1 1.000000 -1.000000
-2000 1 -2000 0 0 -1 -1.000000 1.000000
2000 1 -2000 0 0 -1 1.000000 1.000000
-2000 1 2000 0 0 1 -1.000000 1.000000
1999.998 -1.000001 2000 0 0 1 0.999999 -1.000001
2000 0.999999 2000 0 0 1 1.000000 0.999999
2000 0.999999 2000 1 0 0 1.000000 0.999999
2000 -1 -2000 1 0 0 1.000000 -1.000000
2000 1 -2000 1 0 0 1.000000 1.000000
1999.998 -1.000001 2000 -0.0004768374 -0.9999998 -0.0004768372 0.999999 -1.000001
-2000 -1 -2000 -0.0004768372 -0.9999998 -0.0004768374 -1.000000 -1.000000
2000 -1 -2000 0 -0.9999996 -0.000953674 1.000000 -1.000000
-2000 -1 -2000 -1 0 0 -1.000000 -1.000000
-2000 1 2000 -1 0 0 -1.000000 1.000000
-2000 1 -2000 -1 0 0 -1.000000 1.000000
2000 1 -2000 0.0005066393 0.9999998 0.0005066393 1.000000 1.000000
-2000 1 2000 0.0005066393 0.9999998 0.0005066393 -1.000000 1.000000
2000 0.999999 2000 0.001013278 0.9999989 0.001013278 1.000000 0.999999
-2000 -1 -2000 0 0 -1 -1.000000 -1.000000
-2000 -1 2000 0 0 1 -1.000000 -1.000000
2000 0.999999 2000 1 -2.533197e-10 5.066393e-07 1.000000 0.999999
1999.998 -1.000001 2000 1 -2.533197e-10 5.066393e-07 0.999999 -1.000001
2000 -1 -2000 1 -2.533197e-10 5.066393e-07 1.000000 -1.000000
-2000 -1 2000 -0.0009536743 -0.9999996 0 -1.000000 -1.000000
-2000 -1 2000 -1 0 0 -1.000000 -1.000000
-2000 1 -2000 0 1 0 -1.000000 1.000000
3 0 1 2 
3 3 4 5 
3 6 7 8 
3 9 10 11 
3 12 13 14 
3 15 16 17 
3 0 18 1 
3 3 19 4 
3 20 21 22 
3 9 23 10 
3 12 24 13 
3 15 25 16 
